<svg xmlns="http://www.w3.org/2000/svg" fill="#000000" width="800px" height="800px" viewBox="0 0 24 24" data-name="Flat Color" class="icon flat-color"><path d="M17,18.34V21a1,1,0,0,1-1,1H8a1,1,0,0,1-1-1V18.34a1,1,0,0,1,1.53-.85,6.58,6.58,0,0,0,6.94,0,1,1,0,0,1,1,0A1,1,0,0,1,17,18.34ZM16,2H8A1,1,0,0,0,7,3V5.66a1,1,0,0,0,1.53.85,6.58,6.58,0,0,1,6.94,0,1,1,0,0,0,.53.15,1,1,0,0,0,1-1V3A1,1,0,0,0,16,2Z" style="fill: rgb(44, 169, 188);"></path><circle cx="12" cy="12" r="8.5" style="fill: rgb(0, 0, 0);"></circle><path data-name="secondary" d="M12,8a1,1,0,0,0-1,1v3H10a1,1,0,0,0,0,2h2a1,1,0,0,0,1-1V9A1,1,0,0,0,12,8Z" style="fill: rgb(44, 169, 188);"></path></svg>